<svg id="FYT" xmlns="http://www.w3.org/2000/svg" viewBox="0 0 762.21 521.09">
  <defs>
    <style>
      .cls-1{fill:#000;}
    </style>
  </defs>
  <path class="cls-1" d="M761.34 315.7c-.47 0-1.07.07-1.85.15-3.85.4-7.7.76-11.54 1.25-5.76.73-11.51 1.52-17.26 2.33-7 1-13.94 1.93-20.9 3-3.57.55-4.22 1.28-4.72 4.81-.29 2-.42 4.11-.6 6.17-.44 4.84-.9 9.67-1.28 14.51-.11 1.41 0 2.84 0 4.34 1.06-.16 2.08-.26 3.07-.49 5.89-1.35 11.77-2.75 17.66-4.08 2.57-.58 3.5.12 3.72 2.85a22.33 22.33 0 0 1-1.42 10 165.48 165.48 0 0 1-7.34 16 23.88 23.88 0 0 1-7.9 9.15 18.74 18.74 0 0 1-10.16 5 15.06 15.06 0 0 1-5-.15 13.33 13.33 0 0 1-1.58-.15l-.74-.17-.67-.17c-.64-.24-1.27-.5-1.89-.8a6.68 6.68 0 0 1-1.47-1.16.49.49 0 0 1-.11-.19 16.91 16.91 0 0 1-2.52-2.48 29.61 29.61 0 0 1-5.94-13.05c-1.7-7.68-1.11-15.39-.21-23.07.87-7.44 2.1-14.83 3.09-22.25a265.94 265.94 0 0 1 5.72-29.83c2.42-9.64 4.82-19.28 8.16-28.68 2.71-7.64 6.1-14.82 11.3-21.08 3.47-4.18 7.81-4.53 12-1.59a14.38 14.38 0 0 1 5.61 8.84 106.07 106.07 0 0 1 2.68 21.51c.07 1.93.4 3.85.6 5.68 1.28-.15 2.21-.24 3.13-.36q12.94-1.72 25.89-3.45l.33-.06c.05-.8.1-1.6.16-2.4s-.06-1.35-.09-2a.42.42 0 0 1-.09-.3v-.72q-.12-2.86-.26-5.73c-.92-6.58-1.76-13.18-3.16-19.67-.8-2.41-1.64-4.81-2.49-7.2-2.39-4-5-8-7.57-11.92a35 35 0 0 0-14.47-12.18 43.64 43.64 0 0 0-17.85-4.39c-3.82-.12-7.69-.2-11.3 1.07a70.45 70.45 0 0 0-17 8.91 42.5 42.5 0 0 0-11.58 11.8 91.49 91.49 0 0 0-8.37 16c-1.7 4.35-3 8.87-4.46 13.29-1.7 5-3.7 10-5.13 15.06-2.17 7.72-4.69 15.36-5.94 23.33s-2.83 15.79-4.11 23.71c-1.19 7.39-2.17 14.82-3.21 22.23-.46 3.31-1 6.63-1.2 10-.22 3.08-.18 6.19-.11 9.28a90.29 90.29 0 0 0 .55 11.17c.75 5.08 1.85 10.13 3.1 15.12a47.21 47.21 0 0 0 3.54 10.66c3.29 6.23 7.62 11.74 13.79 15.52 5.21 3.19 10.43 6.14 16.47 7.76 10.6 2.84 20.87 1.81 31-1.59 4.72-1.58 9.16-4 13.73-6a39.7 39.7 0 0 0 11.38-7.74 47.82 47.82 0 0 0 9.42-12.31c.65-1.26 1.53-2.4 2.26-3.63.87-1.49 1.79-3 2.69-4.44 1.29-2.94 2.51-5.91 4-8.75 3.37-10.72 7-21.42 8.36-32.63a159.07 159.07 0 0 0 .08-33.64zm-131.21-55.33c-2 .3-4.08.7-6.12 1.05-5.58 1-11.17 1.9-16.73 2.95-4.23.8-8.41 1.8-12.63 2.6a2.67 2.67 0 0 0-1.59.72c-.11 1.21-.25 2.42-.37 3.63-.25 4.57-.53 9.14-.87 13.7a149.15 149.15 0 0 1-1.06 19c-.07 3.61 0 7.23-.46 10.79-.25 2.1-.66 4.2-.81 6.33s-.18 4-.3 5.95c-.2 3.1-.46 6.2-.64 9.31-.1 1.77 0 3.56-.15 5.32-.33 4.32-.79 8.64-1.11 13-.23 3.05-.2 6.12-.51 9.16a145.29 145.29 0 0 0-1.05 16.75 46.19 46.19 0 0 1-.64 5.85c-1.82-4-3.17-8-4.61-11.92-2.34-6.43-4.8-12.82-7.09-19.27-1.45-4.09-2.69-8.26-4-12.4-.58-1.78-1.2-3.55-1.71-5.35-.6-2.14-.78-4.47-1.72-6.44-1.62-3.39-2.27-7.09-3.49-10.58-1.79-5.13-3.56-10.23-5.81-15.18-1-2.28-1.68-4.73-2.53-7.1-1.6-3.65-3-7.41-4.24-11.19-.59-1.59-1.13-3.21-1.65-4.83a17.32 17.32 0 0 0-3.39.5q-12.42 2.5-24.85 4.88c-2.66.51-5.36.75-8 1.22-1.48.26-3.3.36-4.26 1.27a1.24 1.24 0 0 0-.28.46.49.49 0 0 0-.23.38q-2.74 33.12-4.28 66.33c-1.4 11-1.83 22.27-2.6 33.33-.17 2.49-.33 5-.5 7.47q-.33 2.57-.72 5.14c-.07 1.21-.14 2.42-.19 3.63a.51.51 0 0 0 0 .18c-.24 2.29-.54 4.57-.69 6.87a15.39 15.39 0 0 1-.33 2c0 .79-.1 1.58-.18 2.37.43 3.19-.55 6.24-.62 9.38s-.61 6-.83 9q-.53 7.26-.89 14.54c-.11 2.12 0 4.26 0 6.58 1.81-.29 3.38-.45 4.91-.8 5.26-1.18 10.51-2.41 15.76-3.65q7.19-1.7 14.36-3.47c.87-.22 1.78-.3 1.88-1.69.33-4.82.86-9.63 1.27-14.45.43-5.07.72-10.15 1.21-15.21.88-9.2 1.88-18.39 2.78-27.59.51-5.24.9-10.48 1.39-15.72a23.06 23.06 0 0 1 .55-2.69c1.32 3 2.72 6 3.93 9 1.45 3.64 2.61 7.4 4.11 11 2.07 5 4.37 9.81 6.52 14.74 2.66 6.09 5.24 12.22 7.9 18.32q3.55 8.16 7.23 16.26a1.75 1.75 0 0 0 1.33.91 58.52 58.52 0 0 0 5.83-1c5.92-1.34 11.81-2.82 17.75-4.1 7.73-1.67 15.49-3.22 23.25-4.75a1.46 1.46 0 0 0 1.38-1.55c.57-5.27 1.3-10.53 1.75-15.81.86-10.15 1.57-20.3 2.31-30.46.46-6.28.84-12.57 1.31-18.85.53-7.14 1.17-14.27 1.66-21.4.36-5.19.47-10.41.88-15.6.55-7 1.28-14 1.93-21q.36-3.87.71-7.74c.15-6.46 1.17-12.91 1.47-19.37.29-6.16.33-12.33.76-18.49v-2.25a8 8 0 0 0-1.39.03zm-269.3 21.18c-5.33 1.15-10.69 2.2-16 3.34-5.06 1.08-10.1 2.29-15.17 3.34-6.69 1.38-13.45 2.48-20.1 4-8.64 2-17.2 4.41-25.82 6.52q-12.59 3.08-25.25 5.89c-7.58 1.68-15.21 3.17-22.81 4.76-5.14 1.08-10.28 2.15-15.41 3.28-5.74 1.27-11.45 2.65-17.19 3.9-4 .88-8.14 1.47-12.13 2.5-4.92 1.27-9.73 3-14.65 4.27-2 .51-3.06 1.31-3.06 3.37a1.38 1.38 0 0 1 0 .24l-4.37 25.37c-.31 1.77-.62 3.55-1 5.55.61-.08 1-.1 1.33-.18 2.62-.62 5.23-1.23 7.85-1.87 8.71-2.13 17.64-3.12 26.29-5.58 6.4-1.83 12.95-3.13 19.44-4.63a17.31 17.31 0 0 1 2.48-.21c-.44 5.26-.91 10.16-1.26 15.07-.39 5.59-.69 11.19-1 16.78-.44 7.63-.94 15.26-1.27 22.9-.26 6.16-.28 12.33-.45 18.49-.11 3.94.17 7.85-.34 11.82-.55 4.38-.17 8.88-.37 13.32-.17 3.78-.59 7.55-.88 11.33-.18 2.32-.27 4.66-.49 7s-.68 4.85-.84 7.28c-.32 4.73-.52 9.46-.76 14.19-.19 3.78-.2 7.59-.63 11.34-.26 2.26-.46 4.49-.51 6.77s-.52 4.79-.74 7.19-.38 4.79-.57 7.34c.51-.06 1-.08 1.41-.18 4.18-.93 8.36-1.85 12.53-2.83 3.4-.8 6.8-1.63 10.17-2.54 4.26-1.15 8.5-2.42 12.76-3.6a2.78 2.78 0 0 0 2.3-2.77c.16-2.53.25-5.07.43-7.6q.54-7.56 1.15-15.12.91-11.33 1.87-22.66c.43-5.07 1-10.12 1.34-15.2.4-5.87.63-11.75.91-17.62.29-6.08.44-12.18.84-18.25s1-12.18 1.57-18.27c.45-5 1.05-9.9 1.42-14.86s.55-9.82.74-14.73a20.13 20.13 0 0 0-.09-2.27l.2-2.3 1.74-20.38a2.23 2.23 0 0 1 .84-.27c2.59-.42 5.15-1 7.72-1.56 5-1.07 9.91-2.3 14.91-3.22 7.65-1.4 15.27-2.87 22.77-5 6.63-1.9 13.33-3.59 20.08-5 7.43-1.53 15-2.59 22.42-3.92 2.2-.39 4.34-1 6.52-1.56a1.73 1.73 0 0 0 1.5-1.82c.61-8.06 1.3-16.11 2-24.16.22-2.69.42-5.38.66-8.48-1.98.6-3.48 1.16-5.03 1.49z"/>
  <path class="cls-1" d="M422.27 352.51a1.37 1.37 0 0 0-1.76-.82c-4.83 1.19-9.66 2.42-14.5 3.57-2.61.62-5.24 1.18-7.87 1.69-3.7.72-7.4 1.37-11.11 2a2.32 2.32 0 0 0-2.06 2.25c-.25 2.35-.47 4.7-.69 7.05-.52 5.66-1.06 11.32-1.54 17-.17 2-.19 4-.27 5.95-.1 2.85-.91 3.85-3.82 4.52-7.42 1.71-14.84 3.38-22.26 5.1-5.08 1.18-10.19 2.29-15.22 3.66-4.21 1.15-8.35 2.55-12.52 3.86a.53.53 0 0 0-.42-.13c-.88.15-1.73.34-2.58.57q.19-2.31.4-4.63c-.1-3.88.57-7.76.63-11.66a.46.46 0 0 1 .13-.31v-1.08c.44-5.51.77-11 .85-16.55v-.42q.52-9.8.78-19.61v-2.24a63.7 63.7 0 0 0 .46-8.59 4.1 4.1 0 0 0-.22-1.12 2.17 2.17 0 0 0-.18-1v-.33c-.38-.71-1.2-.73-2.88-.4q-9.4 1.82-18.78 3.82-6.08 1.3-12.1 2.83v-.13l-1.17.39h-.28l-1.07.47-.18.1a2.34 2.34 0 0 0-.29.11c-.55.23-1.11.45-1.67.65a3.14 3.14 0 0 0 .35.28c-.14.09-.2.4-.22.62v.25a9 9 0 0 0-.44 2.17c-.45 4.62-.7 9.27-1 13.89q-1 13.65-1.86 27.3-1.13 17.68-2.06 35.37a.44.44 0 0 1 .09.28 46.46 46.46 0 0 1-.58 6.12c0 1.19 0 2.39-.06 3.58l-4.8 63.63c.72.1 1.43.17 2.15.24a3.69 3.69 0 0 0 .39-.23v.1c2.73-.61 5.2-1.14 7.64-1.72 4-.94 7.89-2 11.85-2.9 5.26-1.22 10.55-2.32 15.8-3.58a2.45 2.45 0 0 0 1.6-1.42 63.75 63.75 0 0 0 1-6.84c.43-4.44.8-8.88 1.15-13.32.47-6.1 1-12.19 1.29-18.3.1-2.06.8-3.14 2.78-3.75 2.48-.76 4.86-1.82 7.29-2.74s4.66-1.87 7.05-2.64c3.57-1.14 7.18-2.11 10.77-3.17 2-.58 3.88-1.63 5.86-1.74 4-.21 7.61-2 11.47-2.74 3.18-.63 6.33-1.49 9.68-2.37q1.2-.11 2.39-.3l-1.4 34.81c-.18 3.19-.34 6.38-.45 9.57a.49.49 0 0 0 0 .13v.22c-.15.29-.15.41-.1 1v.34a.43.43 0 0 0 .48.48.52.52 0 0 0 .9 0l.78-.12c3.28-.6 6.54-1.3 9.79-2 7.75-1.77 15.49-3.64 23.25-5.36 1.21-.27 1.44-.7 1.51-1.87.28-4.84.72-9.67 1.1-14.51q.54-7 1.07-14c.35-4.75.61-9.51 1-14.25.37-4.28 1-8.54 1.33-12.83.06-.75.09-1.5.14-2.26.07-2.44.18-4.88.4-7.31 0-.55.06-1.1.08-1.65s.11-1.11.18-1.64c.25-1.87.44-3.74.6-5.62.15-4.12.18-8.25.61-12.34v-2q0-1.6.06-3.2c0-.35.07-.7.11-1 .56-6.11 1-12.23 1.43-18.34.15-1.34 1.21-7.07-.26-8.89zm230.72-129.85c-7.66 1-15.3 2.2-23 3.2-8.07 1.06-16.16 1.9-24.22 3s-15.93 2.34-23.86 3.71c-9.1 1.57-18.2 3.2-27.25 5.05-9.52 1.95-19 4.17-28.46 6.3q-15.16 3.39-30.31 6.82c-1.12.25-2.27.39-3.7.63 1.41-4.62 2.86-8.84 4-13.14q3.22-12.46 6.11-25c1-4.25 1.72-8.56 2.48-12.86q1.3-7.4 2.41-14.84c.73-4.92 1.38-9.86 2-14.79s1.24-9.58 1.71-14.39c.33-3.36.4-6.75.59-10.26-6.31-.15-11.88 1.58-17.52 2.89-.06.33-.12.66-.18 1s-.15.91-.23 1.36a83.71 83.71 0 0 1-1.58 13.15c-.38 4-1.11 8-1.73 12l-.6 3.8c-.45 4.11-.82 8.38-1.68 12.48-.86 8.19-3.71 15.41-9.78 21.14a77.13 77.13 0 0 1-13.93 10.31c-4.88 2.87-9.42 1.64-13.88-.76a7.43 7.43 0 0 1-3.55-4.57 35.82 35.82 0 0 1-1.33-16.25c.92-5.4 1.82-10.81 2.73-16.21.34-2 .62-4.06 1-6.08.68-3.58 1.29-7.18 2.16-10.72.92-3.75 2.11-7.43 3.3-11.55-6.26.87-12 1.64-17.72 2.5a2 2 0 0 0-1.25 1.17 31 31 0 0 0-1.19 4.17c-1.23 5.58-2.44 11.16-3.59 16.75-.54 2.63-.94 5.3-1.36 8-.15.93-.14 1.89-.27 2.82-.44 3.27-1.06 6.52-1.34 9.8-.34 4-.32 7.94-.59 11.9a25.1 25.1 0 0 0 1.93 11.81c2.4 5.61 6.78 9.44 11.67 12.62s10.62 3.35 16.09 2.78c7.19-.74 13.52-4 19-8.81 1.3-1.14 2.7-2.16 4.51-3.6a24.58 24.58 0 0 1-.54 2.72c-2.53 7.54-5.1 15.06-7.63 22.6a3.52 3.52 0 0 1-.76 1.37l-3 1c-1.07.24-2.14.51-3.18.85q-15.49 4.91-31 9.88c-10.43 3.36-19.81 8.87-29.21 14.35-3.41 2-6.08 4.77-9.08 7.2a28 28 0 0 0-7.42 8.71 55.29 55.29 0 0 0-3.82 9.23 25.07 25.07 0 0 0-1.34 8.1 26.16 26.16 0 0 0 4.54 13.37 24.32 24.32 0 0 0 8.58 7.64 15 15 0 0 0 4.72 1.77 29.39 29.39 0 0 0 11.87 1.21l.74-.07a18.81 18.81 0 0 0 5.73-.42 69.29 69.29 0 0 0 16.84-6.88 78.55 78.55 0 0 0 14-10.56 92.87 92.87 0 0 0 12.07-13.73c3.85-5.41 6.93-11.24 10.23-17 1.33-2.31 2.64-4.64 4.19-7.36-4.21 1.46-7.94 2.78-11.69 4-4.22 1.42-8.48 2.75-12.68 4.23a4.46 4.46 0 0 0-2.22 1.66c-2.6 4.25-5.18 8.52-8.77 12s-7 7.12-11 10.06a52.61 52.61 0 0 1-16.25 8.3 7.94 7.94 0 0 1-3.5.51 30.92 30.92 0 0 1-5.39-1.8 6.16 6.16 0 0 1-4.08-5.15 14.72 14.72 0 0 1 1.36-9.44 18.15 18.15 0 0 1 4.74-5.6c3.72-3 7.47-5.88 11.39-8.55a59.43 59.43 0 0 1 15.91-7.25c1.92-.6 3.86-1.12 5.81-1.61 1.76-.45 3.6-.67 5.32-1.24 4.41-1.45 8.63-3.41 13.19-4.5s9.15-2.76 13.71-4.21c7.81-2.47 15.58-5.06 23.64-6.7 9-1.82 17.87-3.92 26.79-6 10.49-2.4 20.92-5 31.45-7.24 11.69-2.44 23.44-4.61 35.21-6.66 7.69-1.34 15.46-2.27 23.19-3.36 7.57-1.07 15.14-2.1 22.71-3.16q8.87-1.24 17.74-2.52a2.83 2.83 0 0 0 2.36-1.61c2-3.78 4.16-7.49 6.29-11.2 1.09-1.91 2.26-3.77 3.55-5.91-4.56.58-8.73 1.07-12.9 1.64z"/>
  <path class="cls-1" d="M483.95 306.43c-1.92.3-3.92.39-5.27 2.18-2.55 3.37-5.1 6.74-7.79 10q-5.62 6.8-11.45 13.42c-4.24 4.84-8.28 9.91-13.41 13.85a6.71 6.71 0 0 0-2 2.42c-.11 1.56-.33 3.11-.53 4.66 0 1.11-.11 2.24-.06 3.36a16.51 16.51 0 0 1 .07 3.51 92.21 92.21 0 0 0-.61 9.25q-.27 4.69-.55 9.37a58.05 58.05 0 0 1-.29 6.91v3.45a26.09 26.09 0 0 1 0 2.62c0 .29 0 .58-.07.86a120.14 120.14 0 0 1-1.27 15.24c.14 2.57-.54 5.1-.41 7.7a33.62 33.62 0 0 1-.55 6.64 79.88 79.88 0 0 1-1 14.39c0 2 0 4-.14 6.07-.18 3.81-.51 7.62-.85 11.42q-.21 2.45-.45 4.93c-.08 3.33-.15 6.65-.52 10v.11c2.39-.5 4.65-.91 6.88-1.47 3.6-.91 7.14-2.13 10.77-2.85 6-1.19 12.09-2.1 18.14-3.09a1.84 1.84 0 0 0 1.77-1.85c.35-4 .79-8 1.08-12.08.6-8.3 1.08-16.61 1.68-24.9.36-4.91 1-9.81 1.29-14.72s.43-9.95.75-14.91c.52-8.08 1.18-16.14 1.68-24.22.44-7 .74-14 1.11-21.07.1-1.92.22-3.84.4-5.76.29-3 .67-6.07.94-9.1.19-2.1.26-4.21.36-6.31.2-3.95.36-7.89.57-11.84.12-2.34.33-4.68.41-7-.02-.4-.52-1.21-.68-1.19zm-171.06-126a2.66 2.66 0 0 0-2.36 2.26c-1.36 7.39-2.83 14.76-4.34 22.13-.83 4.07-1.79 8.12-2.74 12.17-1.46 6.25-3 12.5-4.45 18.74-.38 1.58-.78 3.15-1.27 5.11-.36-.78-.57-1.19-.74-1.62-1.08-2.74-2.1-5.51-3.25-8.22-2.2-5.21-4.52-10.37-6.68-15.59-3.19-7.7-6.26-15.45-9.47-23.15-.27-.64-1.32-1.49-1.85-1.4a58.7 58.7 0 0 0-7.82 1.92c-3 1-6 2.22-8.95 3.4a1.87 1.87 0 0 0-1 1.05c-1.15 3.87-2.46 7.72-3.3 11.66-1.47 6.84-2.63 13.75-3.93 20.63-.87 4.62-1.85 9.21-2.63 13.84s-1.34 9.31-2 14c-.67 4.41-1.49 8.8-2.08 13.23-.57 4.26-.93 8.54-1.38 12.82-.12 1.14-.2 2.28-.32 3.8 5.18-1.2 9.93-2.47 14.74-3.34a3.05 3.05 0 0 0 2.83-2.76q3.56-14.58 7.27-29.11c2.15-8.47 4.38-16.91 6.73-26 1.6 3.72 3.08 7 4.4 10.26 3.79 9.54 7.59 19.09 11.22 28.69 1.38 3.64 2.33 7.39 4.89 10.53a4.36 4.36 0 0 0 .78.78l4.63-.77c3.19-.54 6.37-1.14 9.52-1.86a6.92 6.92 0 0 0 1.41-3.18c1-3.94 2-7.88 2.94-11.83.67-2.78 1.35-5.56 1.92-8.36 1.24-6.17 2.35-12.37 3.63-18.53 1.64-7.86 3.49-15.67 5.06-23.54 1.53-7.64 2.83-15.33 4.19-23 .53-3 1-6 1.47-9.18zm417.31-13.49c.37-.3.86-.67 1.32-1.06 2.53-2.19 5.3-4.16 7.52-6.63 3.68-4.09 6.24-8.8 5.76-14.61-.09-1-.06-2.07-.12-3.11a20.37 20.37 0 0 0-2.38-8.41c-4.63-8.8-12.26-13.44-21.62-15.61-.27-.06-.55-.11-.83-.15a25.67 25.67 0 0 0-5.27-1 36.68 36.68 0 0 0-13.11-.05.43.43 0 0 0-.23.12c-.57.06-1.14.12-1.71.21-1.36.21-2.71.49-4.05.8l-1.28.36c-2.05.6-4.2 1.16-6.34 1.79-.38 1.51-.73 3-1.05 4.55s-.6 3.16-.89 4.74a.37.37 0 0 0 0-.06v1q-.38 2.39-.75 4.79a42.71 42.71 0 0 1-.63 4.33c0 .21-.06.41-.09.62-.47 3.41-.72 6.85-1 10.28-.09.92-.13 1.85-.19 2.78-.17 2.62-.22 5.26-.55 7.86-.11.9-.24 1.81-.36 2.71-.55 7.68-1.26 15.36-2.48 23-.25 2.75-.5 5.49-.78 8.24q-.38 5.93-.77 11.86c4.29-.63 8.6-1.07 12.9-1.65 1.6-.27 3.2-.53 4.81-.76a9.56 9.56 0 0 0 .34-3.05 142 142 0 0 1 1.78-18.73 2 2 0 0 1 1.86-2q4.39-1 8.74-2.21c1.15-.31 2.23-.89 3.38-1.2a1.64 1.64 0 0 1 1.42.28c2.9 4.1 5.86 8.17 8.54 12.42 2.17 3.45 4 7.11 5.89 10.73a2 2 0 0 0 2.51 1.16c1.64-.3 3.28-.57 4.92-.84l12.78-2.22c-5.14-11.12-10.78-21.57-17.99-31.28zm-5.94-16.43c-1.18 2.15-3.27 3.29-5 4.86a34.91 34.91 0 0 1-7.57 5.52 44.2 44.2 0 0 1-6.2 2.42c-1.7.57-3.46 1-5.14 1.42.31-3.73.63-7.67 1-11.61.26-3.17.49-6.34.8-9.5s.7-6.11 1.06-9.16c.2-1.65.42-3.3.59-5 .1-1 .4-1.46 1.58-1.56 3.89-.35 7.57.63 11.19 1.73a16.35 16.35 0 0 1 5.82 2.83 11.33 11.33 0 0 1 4.11 7.36c.15 1.33.16 2.68.26 4 .24 2.65-1.34 4.57-2.5 6.69zm-324.23 50.47a44.45 44.45 0 0 0-6-15.23c-4.73-7.25-11.72-11.59-19.6-14.6a27.11 27.11 0 0 0-8.27-2c-4-.18-8.1.37-12.15.57a1.46 1.46 0 0 0-1.58 1.39c-.39 1.95-.91 3.87-1.43 5.79-1.5 5.46-3.09 10.87-4.5 16.32-1.4 5.23-2.77 10.48-4 15.75-.86 3.58-1.58 7.2-2.23 10.83-.6 3.35-.77 6.8-1.59 10.1a245.38 245.38 0 0 0-5.51 26.64c-.53 4-1.47 7.94-2.24 12a3.69 3.69 0 0 0 1.14.23c4.89-.62 9.83-1 14.65-2a102.5 102.5 0 0 0 12.95-3.8c2.53-.88 5-2 7.41-3.11a47.38 47.38 0 0 0 17.09-10.47l.19-.17.63-.61a41.93 41.93 0 0 0 10-12.65 35.18 35.18 0 0 0 5.79-14.74 59.73 59.73 0 0 0-.75-20.24zm-42 47.75a26.44 26.44 0 0 1-7.14 3.55c.2-1 .39-1.92.58-2.88.34-1.77.63-3.56.91-5.34 2.27-7.74 3.36-15.72 4.78-23.65 1.1-6.1 2.76-12.1 4.11-18.16 1-4.57 1.94-9.16 2.94-13.74.39-1.77.87-3.51 1.37-5.51a41.13 41.13 0 0 1 9.65 6.39c4 3.72 6.2 8.45 7.53 13.61a27.23 27.23 0 0 1 .11 14.4 48.24 48.24 0 0 1-11.5 19.9c-3.99 4.33-8.67 7.86-13.3 11.43zm229.96-78.91a64.41 64.41 0 0 0-8.1-22.74 23.11 23.11 0 0 0-10.64-9.66c-6.14-2.52-12.52-4.62-19.37-2.73h-.48a13.23 13.23 0 0 0-5.55 2.24 20.23 20.23 0 0 0-4.9 3.56c-.49.44-.95.89-1.41 1.36a33.15 33.15 0 0 0-3.27 3.21c-3.07 3-5 6.8-7.08 10.45-2.17 3.88-3.45 8.28-4.95 12.51s-2.73 8.28-4 12.45a41.11 41.11 0 0 0-1.92 7.62c-.46 4.57-.59 9.19-.63 13.79a55.11 55.11 0 0 0 .62 8.75c.5 3.28 2.34 5.92 4.41 8.54a25.21 25.21 0 0 0 11.65 8 16.72 16.72 0 0 0 9.2 2.56 7.48 7.48 0 0 0 2 .2c7.94-.48 15.37-3.06 22.57-6.17a30.85 30.85 0 0 0 9.38-6.94 34.91 34.91 0 0 0 8-12.08c3.09-8 5.32-16.11 5.4-26.14-.23-1.97-.34-5.38-.93-8.78zm-15 7.36a19.68 19.68 0 0 1-.73 6.73 74.76 74.76 0 0 1-3 9.65c-.47 1.2-1 2.35-1.58 3.47-1.51 4.2-3.51 8.16-7.18 11.09-1.39 1.11-2.71 2.32-4.09 3.44a39.52 39.52 0 0 1-5.18 2.15l-.73.19a21.19 21.19 0 0 1-11.28-.84l-.65-.29c-1.18-1.42-2.84-2.47-3.86-4-2.24-3.31-2.9-7.17-3.15-11-.1-4.87 1.21-9.37 2.72-13.83.92-2.7 1.76-5.43 2.67-8.13.63-2.7 1.35-5.38 2.24-8a42.4 42.4 0 0 1 5.73-11.69c.35-.61.72-1.2 1.11-1.78l.18-.25.14-.2a9.54 9.54 0 0 1 4-3.53 4.75 4.75 0 0 1 2.9-.21c1.64-.28 3.37.34 5 .74a17 17 0 0 1 10.72 8.52 40 40 0 0 1 3.81 10.74 17.58 17.58 0 0 1 .36 4.84 18 18 0 0 1-.18 2.23zm95.86-55.79c-5.14.91-10.27 1.86-15.41 2.75a1.84 1.84 0 0 0-1.64 1.69 100.48 100.48 0 0 0-2.2 13.61 130.18 130.18 0 0 1-2.38 14.1c-.94 4.67-2 9.34-3.18 13.95-1.27 4.83-2.71 9.63-4.28 14.37a27.4 27.4 0 0 1-3 6.46c-2.06 3.13-5.06 5.36-8 7.7a21.5 21.5 0 0 1-7.68 2.49h-.07a12 12 0 0 1-3.88-1.19c-1.25-1.58-2.4-3.28-2.31-5.43a106.32 106.32 0 0 1 .85-11.86c1.28-8.34 3-16.63 4.3-25s2.41-16.67 3.64-25.37c-1.77.41-3.28.87-4.83 1.08-3.23.44-6.48.72-9.71 1.13-1 .13-2.24-.26-2.56 1.43-.75 4-1.85 8-2.47 12.08-.92 6-1.54 12.13-2.33 18.2-.25 1.89-.72 3.76-.94 5.66-.43 3.67-.51 7.4-1.17 11-1.13 6.18-.8 12.37-.64 18.56a8.75 8.75 0 0 0 1.7 5.1 17.42 17.42 0 0 0 9.49 8.64l.34.2a26.71 26.71 0 0 0 10.57.87 40.37 40.37 0 0 0 13.18-4.16l1.46-.78c1.67-1 3.29-2 4.89-3.15l.12 1.54-.15.12v2a2.9 2.9 0 0 0 .31 1.5c.92-.07 1.84-.16 2.76-.26 2.12-.31 4.25-.58 6.38-.84 2.72-.4 5.43-.81 8.13-1.17 0-.22.09-.44.12-.66.46-2.64.81-5.29 1-8l.12-.89q1.86-13.46 3.74-26.92c1.25-8.95 2.56-17.89 3.73-26.85 1-7.86 1.88-15.74 2.83-23.71a3 3 0 0 0-.83.01zm-431.21 76.48c-4.38 1-8.81 1.64-13.08 3.31s-9 2.53-13.59 3.68c-6.15 1.56-12.31 3.06-18.46 4.59-.61.15-1.2.4-1.81.56l-8.94 2.42 15.1-70.21c-2.3.54-4.49 1.08-6.68 1.57-3.77.84-7.56 1.57-11.31 2.51-1.89.47-3.64 1.13-4.16 3.57-.93 4.34-2.22 8.6-3.3 12.91-1.6 6.4-3.2 12.8-4.7 19.22q-2.48 10.58-4.77 21.2c-2 9.53-4.08 19.07-6 28.64-1.79 9.13-2.79 18.43-5.06 27.45-31.01 123.59-45.38 261.79-91.68 237.93-8.64-4.45-8.85-16.67-8.25-21.52a104.42 104.42 0 0 1 3.44-15.09c2-7.1 4.16-14.14 6.42-21.16 1.07-3.32 2.49-6.53 3.76-9.78.78-2 1.35-4-.21-5.85a8.65 8.65 0 0 0-2.55-1.65c-4.28-2.31-8.59-4.5-13.62-4.7-1.16 0-1.85 0-2.41 1.22a70.9 70.9 0 0 0-5 12.52c-1.06 4.16-2.32 8.26-3.47 12.4a54.72 54.72 0 0 0-1.89 7.37c-1.11 8.51-3.28 16.86-3.74 25.46-.21 4-1 7.93 0 11.89a86.4 86.4 0 0 0 2.48 8.69c1.86 4.91 3.85 9.81 8 13.4 1.09.94 2.17 1.88 3.3 2.77 3.53 2.79 7.26 5.44 11.68 6.3 4.71.92 9.57 1.08 14.65 1.61 3.79-.45 7.83-.71 11.77-1.48 3.44-.67 7-1.27 10-3.27 1.85-1.2 3.87-2.14 5.77-3.27a32 32 0 0 0 10.74-10.49 1.8 1.8 0 0 0 .12-.24c31.18-48.13 66.31-259.42 67.6-264.85a2.75 2.75 0 0 1 2.33-2.49q9.33-2.09 18.63-4.31c4.25-1 8.47-2.15 12.74-3.1s8.62-1.53 12.85-2.61 8.33-2.59 12.5-3.9a2.18 2.18 0 0 0 1.49-2c.6-3.6 1.3-7.19 1.88-10.8a58.25 58.25 0 0 0 .94-7.56c.07-2.45-1.16-3.4-3.51-2.86z"/>
  <path class="cls-1" d="M333.73 48.11a52.71 52.71 0 0 0-2.59-13.83 47 47 0 0 0-7.16-13.36 21.53 21.53 0 0 0-4.09-3.93c-2.27-1.75-4.76-3.21-7.05-4.94a57.62 57.62 0 0 0-16.34-8.9 56.24 56.24 0 0 0-16-2.86 117.27 117.27 0 0 0-12-.2c-5.37.36-10.73 1.07-16.05 1.88a50.46 50.46 0 0 0-15.08 4.92 45.67 45.67 0 0 0-5.52 3.47c-3.28 2.29-6.91 4.27-9.65 7.1a105 105 0 0 0-10 12.66 114.85 114.85 0 0 0-6.55 11 67.06 67.06 0 0 0-3.23 7.15c-1.4 3.46-2.45 7.08-4.06 10.44-3.17 6.59-4.78 13.64-6.63 20.63-1.46 5.51-2.88 11-4.4 16.54-1.14 4.14-2.48 8.22-3.6 12.36a1.85 1.85 0 0 1-1.71 1.58q-3.74.61-7.46 1.33-10.74 2.07-21.48 4.19a122.29 122.29 0 0 0-20.64 5.8c-7.94 3.08-15.94 6.08-23.83 9.15-3 1.16-5.75 3-8.8 3.63-4.23.89-8 2.77-12 4.27a132.26 132.26 0 0 0-12.32 5.8 104 104 0 0 0-15.35 9 215.44 215.44 0 0 0-18.59 14.84c-1.86 1.72-3.63 3.54-5.38 5.37-3.07 3.22-6.42 6.21-8.42 10.31a142.16 142.16 0 0 0-11.18 32.1 65 65 0 0 0-1.4 20.85 16.11 16.11 0 0 1 0 3.87q-1.26 2.16-2.36 4.41l-.1.09a2.72 2.72 0 0 0-.66 1c-2.12 4.85-4.6 9.59-6.26 14.6-2.9 8.77-5.41 17.67-5.52 27-.05 4.58-.38 9.16-.3 13.73a76.18 76.18 0 0 0 1.59 12c1.5 8.38 3.27 16.68 6.33 24.63a31 31 0 0 0 4.38 8.13c4.06 5.11 8.53 9.89 13 15.05.2-.56.29-.82.4-1.08 1.38-3.44 2.62-6.94 4.18-10.3a80.29 80.29 0 0 1 4.36-7.78 1.21 1.21 0 0 0-.23-1.82 34.33 34.33 0 0 1-2.85-2.88c-4.63-5.56-6.84-12.33-9.3-18.95s-2.63-13.48-2.89-20.41a77 77 0 0 1 3-25.18c.72-2.4 1.58-4.76 2.46-7.39 1.33 1.76 2.36 3.15 3.42 4.52 3.71 4.75 6.68 10.12 11.88 13.58 2.58 1.71 4.85 3.92 7.54 5.41a50.42 50.42 0 0 0 11.83 4.88c5.08 1.3 10 3 15.38 2.8 1.25 0 2.5.26 3.75.34l1.28.08c2.64-.35 5.28-.7 7.89-1.16 3.5-1.17 7.05-2.16 10.6-3.18.73-.31 1.46-.61 2.18-.93 3.31-1.45 6.63-3 9.14-5.71 2.14-2.32 4.19-4.73 6.11-7.23a33.8 33.8 0 0 0 6.87-18 48.6 48.6 0 0 0-1.1-15.86 51.91 51.91 0 0 0-3-9.31 43.1 43.1 0 0 0-8.45-11.82 32.5 32.5 0 0 0-8.66-6.65c-1.83-.93-3.78-1.6-5.63-2.49-5.49-2.64-11.43-3.6-17.32-4.77a7.35 7.35 0 0 0-1 0 51.27 51.27 0 0 0-9.62.5 46.23 46.23 0 0 0-14.25 2.21.47.47 0 0 0-.35.39 20.4 20.4 0 0 0-4 1.53c-.09 5.82-.09 11.63-.16 17.45q.21 2.91.57 5.81c1.75-.91 3.23-1.72 4.72-2.44 4-1.93 8-3.69 12.61-3.83a64.88 64.88 0 0 1 12.52.58 16.13 16.13 0 0 1 2.11.52c.33 0 .65.08 1 .14a21.16 21.16 0 0 1 7.26 2c3.13 1.09 5.6 3.21 8 5.55a8 8 0 0 1 2.26 4c3 5.09 1.92 11.95-.29 17.16a20.91 20.91 0 0 1-6.78 8.75c-.18.13-.37.25-.55.36a8.27 8.27 0 0 1-3.4 1.85 5.55 5.55 0 0 1-1.91.87 62.75 62.75 0 0 1-14.06 1 8.31 8.31 0 0 1-2.1-.43c-2.14-.62-4.3-1.2-6.41-1.93-.94-.32-1.91-.62-2.84-1a49.41 49.41 0 0 1-7.6-5.46 4.3 4.3 0 0 0-1.87-1.92q-1-1.06-1.88-2.14c-.1-.13-.21-.25-.31-.38a3.41 3.41 0 0 0-.24-.26q-2.04-2.34-4.14-4.97a9 9 0 0 0-1-1.87 29.61 29.61 0 0 1-4.15-10.34 108.8 108.8 0 0 1-1.69-11.07 60.53 60.53 0 0 1 2.16-25.28 15.2 15.2 0 0 1 1.46-3.51c2.57-4.3 5.06-8.67 7.93-12.76a43 43 0 0 1 7.57-8.82 138.68 138.68 0 0 1 22.51-15.21c1.19-.63 2.32-1.39 3.47-2.09 4-2.43 7.74-5.29 12.38-6.43.3-.07.57-.28.87-.39 6.74-2.41 13.44-5 20.24-7.2 7.26-2.39 14.6-4.51 21.92-6.73 6.48-2 12.9-4.2 19.48-5.75 8.91-2.09 17.93-3.77 27-5.38 7.06-1.26 14.18-2.15 21.27-3.19 9.23-1.35 18.45-2.77 27.69-4 11.62-1.57 23.25-3.06 34.65-5.84a180.52 180.52 0 0 0 17.84-5.31c3.64-1.3 6.93-3.55 10.46-5.21 7.9-3.7 14.51-9.17 20.76-15.1l.44-.44a71.14 71.14 0 0 0 7.09-10.06c5.31-9.19 7.16-19.38 8.32-29.73v-1c-.12-1.59-.24-3.18-.34-4.77zm-25 9.22a32.05 32.05 0 0 1-4.61 17.13 57 57 0 0 1-3.61 5.61 33 33 0 0 1-16.31 11.78 184.77 184.77 0 0 1-30.89 6.76c-6.69.92-13.41 1.56-20.1 2.47-4.31.59-8.57 1.57-12.88 2.11a60.24 60.24 0 0 0-11.28 2.3q-1.33.17-2.66.38c.14-.58.3-1.15.43-1.73 1.07-3.2 2.16-6.39 3.17-9.6 1.89-6 3.59-12.05 5.61-18s4.09-11.88 6.6-17.62c1.94-4.43 4.59-8.54 6.93-12.79q.63-1.14 1.21-2.3a16.51 16.51 0 0 1 .81-1.73 56.52 56.52 0 0 1 17-16.32 40.13 40.13 0 0 1 11.65-5.06.43.43 0 0 1 .27-.22c1.56-.42 3.14-.74 4.73-1 .54-.12 1.09-.21 1.64-.3 2.79-1.11 6.15-.93 9-.52 1 .14 2 .34 3 .56a32.21 32.21 0 0 1 8.67 2.55l.68.28a26 26 0 0 1 7.7 4.28c1 .77 2 1.59 2.91 2.46a14.36 14.36 0 0 1 3.1 3.23 29.38 29.38 0 0 1 4 5.87 35 35 0 0 1 3.24 19.43zm-73.5 174.64c-6.78 1.7-13.34 3.32-19.88 5a1.67 1.67 0 0 0-.87 1.18c-.86 5.57-1.75 11.15-2.46 16.74-.6 4.79-1.09 9.59-1.62 14.39l-3.9 27.33c.63-.13 1.27-.25 1.91-.36v-.11l.52-.24v.08c5.45-1.22 10.63-2.42 15.82-3.52 1.13-.24 1.05-1 1.17-1.77.94-6.44 1.85-12.88 2.85-19.31 1.19-7.62 2.41-15.24 3.72-22.85.86-5 1.89-10 2.82-14.93a8 8 0 0 0-.08-1.63z"/>
  <path class="cls-1" d="M246.5 157.59c-1.42-3.6-6.9-4.72-10-2.49-3.58.56-6.12 4.36-7.79 7.52-1.88 3.59-3.92 8-3.4 12.2a9.08 9.08 0 0 0 1.53 4.88 8.4 8.4 0 0 0 8.49 5.28 10.51 10.51 0 0 0 7.4-4.16 27.12 27.12 0 0 0 5.54-15.46c.52-2.49-.77-5.19-1.77-7.77z"/>
</svg>
